# This file uses centimeters as units for non-parametric coordinates.

mtllib tree_test.mtl
g default
v 1.043648 0.000000 -1.171503
v -0.000000 0.000000 -1.656755
v -1.043649 0.000000 -1.171503
v -1.475942 0.000000 -0.000000
v -1.043649 0.000000 1.171503
v -0.000000 0.000000 1.656755
v 1.043649 0.000000 1.171503
v 1.475942 0.000000 -0.000000
v 0.512994 12.000000 -0.524628
v 0.000000 12.000000 -0.741935
v -0.512994 12.000000 -0.524628
v -0.725483 12.000000 0.000000
v -0.512994 12.000000 0.524628
v 0.000000 12.000000 0.741936
v 0.512994 12.000000 0.524628
v 0.725483 12.000000 0.000000
v 0.000000 0.000000 0.000000
v 0.000000 12.000000 0.000000
vt 0.610485 0.045765
vt 0.500000 0.000000
vt 0.389515 0.045765
vt 0.343750 0.156250
vt 0.389515 0.266735
vt 0.500000 0.312500
vt 0.610485 0.266735
vt 0.656250 0.156250
vt 0.375000 0.312500
vt 0.406250 0.312500
vt 0.437500 0.312500
vt 0.468750 0.312500
vt 0.500000 0.312500
vt 0.531250 0.312500
vt 0.562500 0.312500
vt 0.593750 0.312500
vt 0.625000 0.312500
vt 0.375000 0.688440
vt 0.406250 0.688440
vt 0.437500 0.688440
vt 0.468750 0.688440
vt 0.500000 0.688440
vt 0.531250 0.688440
vt 0.562500 0.688440
vt 0.593750 0.688440
vt 0.625000 0.688440
vt 0.610485 0.733265
vt 0.500000 0.687500
vt 0.389515 0.733265
vt 0.343750 0.843750
vt 0.389515 0.954235
vt 0.500000 1.000000
vt 0.610485 0.954235
vt 0.656250 0.843750
vt 0.500000 0.150000
vt 0.500000 0.837500
vn 0.410414 0.068246 -0.909342
vn 0.410414 0.068246 -0.909342
vn 0.410414 0.068246 -0.909342
vn 0.410414 0.068246 -0.909342
vn -0.410414 0.068246 -0.909342
vn -0.410414 0.068246 -0.909342
vn -0.410414 0.068246 -0.909342
vn -0.410414 0.068246 -0.909342
vn -0.933089 0.059369 -0.354713
vn -0.933089 0.059369 -0.354713
vn -0.933089 0.059369 -0.354713
vn -0.933089 0.059369 -0.354713
vn -0.933089 0.059369 0.354713
vn -0.933089 0.059369 0.354713
vn -0.933089 0.059369 0.354713
vn -0.933089 0.059369 0.354713
vn -0.410414 0.068246 0.909342
vn -0.410414 0.068246 0.909342
vn -0.410414 0.068246 0.909342
vn -0.410414 0.068246 0.909342
vn 0.410414 0.068246 0.909342
vn 0.410414 0.068246 0.909342
vn 0.410414 0.068246 0.909342
vn 0.410414 0.068246 0.909342
vn 0.933089 0.059369 0.354713
vn 0.933089 0.059369 0.354713
vn 0.933089 0.059369 0.354713
vn 0.933089 0.059369 0.354713
vn 0.933089 0.059369 -0.354713
vn 0.933089 0.059369 -0.354713
vn 0.933089 0.059369 -0.354713
vn 0.933089 0.059369 -0.354713
vn 0.000000 -1.000000 -0.000000
vn 0.000000 -1.000000 -0.000000
vn 0.000000 -1.000000 -0.000000
vn 0.000000 -1.000000 0.000000
vn 0.000000 -1.000000 0.000000
vn 0.000000 -1.000000 -0.000000
vn 0.000000 -1.000000 -0.000000
vn 0.000000 -1.000000 0.000000
vn 0.000000 -1.000000 0.000000
vn 0.000000 1.000000 0.000000
vn 0.000000 1.000000 -0.000000
vn 0.000000 1.000000 -0.000000
vn 0.000000 1.000000 -0.000000
vn 0.000000 1.000000 0.000000
vn 0.000000 1.000000 0.000000
vn 0.000000 1.000000 -0.000000
vn 0.000000 1.000000 -0.000000
vn 0.000000 1.000000 0.000000
s off
g pCylinder1
usemtl initialShadingGroup
f 1/9/1 2/10/2 10/19/3 9/18/4
f 2/10/5 3/11/6 11/20/7 10/19/8
f 3/11/9 4/12/10 12/21/11 11/20/12
f 4/12/13 5/13/14 13/22/15 12/21/16
f 5/13/17 6/14/18 14/23/19 13/22/20
f 6/14/21 7/15/22 15/24/23 14/23/24
f 7/15/25 8/16/26 16/25/27 15/24/28
f 8/16/29 1/17/30 9/26/31 16/25/32
s 1
f 2/2/33 1/1/34 17/35/35
f 3/3/36 2/2/33 17/35/35
f 4/4/37 3/3/36 17/35/35
f 5/5/38 4/4/37 17/35/35
f 6/6/39 5/5/38 17/35/35
f 7/7/40 6/6/39 17/35/35
f 8/8/41 7/7/40 17/35/35
f 1/1/34 8/8/41 17/35/35
s 2
f 9/33/42 10/32/43 18/36/44
f 10/32/43 11/31/45 18/36/44
f 11/31/45 12/30/46 18/36/44
f 12/30/46 13/29/47 18/36/44
f 13/29/47 14/28/48 18/36/44
f 14/28/48 15/27/49 18/36/44
f 15/27/49 16/34/50 18/36/44
f 16/34/50 9/33/42 18/36/44
g default
v -0.079072 11.514026 -0.205519
v -0.094470 11.624347 -0.057300
v -0.093517 11.627512 0.128081
v -0.076579 11.522311 0.279814
v -0.050125 11.348928 0.339942
v -0.024259 11.173589 0.285499
v -0.008861 11.063267 0.137279
v -0.009814 11.060103 -0.048102
v -0.026752 11.165303 -0.199834
v -0.053206 11.338686 -0.259963
v 10.045656 13.414391 -0.722830
v 10.012193 13.519261 -0.570382
v 10.040953 13.526403 -0.387317
v 10.120949 13.433087 -0.243560
v 10.221627 13.274957 -0.194022
v 10.304530 13.112413 -0.257625
v 10.337992 13.007542 -0.410074
v 10.309233 13.000401 -0.593139
v 10.229236 13.093717 -0.736895
v 10.128559 13.251847 -0.786433
v -0.051665 11.343807 0.039990
v 10.175093 13.263402 -0.490228
v 3.881474 11.388199 0.760575
v 3.780797 11.546329 0.711038
v 3.700801 11.639645 0.567281
v 3.672041 11.632504 0.384216
v 3.705504 11.527633 0.231768
v 3.788407 11.365089 0.168165
v 3.889084 11.206959 0.217703
v 3.969080 11.113643 0.361459
v 3.997840 11.120785 0.544524
v 3.964377 11.225656 0.696973
vt 0.626409 0.064409
vt 0.548284 0.007647
vt 0.451716 0.007647
vt 0.373591 0.064409
vt 0.343750 0.156250
vt 0.373591 0.248091
vt 0.451716 0.304853
vt 0.548284 0.304853
vt 0.626409 0.248091
vt 0.656250 0.156250
vt 0.375000 0.312500
vt 0.400000 0.312500
vt 0.425000 0.312500
vt 0.450000 0.312500
vt 0.475000 0.312500
vt 0.500000 0.312500
vt 0.525000 0.312500
vt 0.550000 0.312500
vt 0.575000 0.312500
vt 0.600000 0.312500
vt 0.625000 0.312500
vt 0.375000 0.688440
vt 0.400000 0.688440
vt 0.425000 0.688440
vt 0.450000 0.688440
vt 0.475000 0.688440
vt 0.500000 0.688440
vt 0.525000 0.688440
vt 0.550000 0.688440
vt 0.575000 0.688440
vt 0.600000 0.688440
vt 0.625000 0.688440
vt 0.626409 0.751909
vt 0.548284 0.695147
vt 0.451716 0.695147
vt 0.373591 0.751909
vt 0.343750 0.843750
vt 0.373591 0.935591
vt 0.451716 0.992353
vt 0.548284 0.992353
vt 0.626409 0.935591
vt 0.656250 0.843750
vt 0.500000 0.150000
vt 0.500000 0.837500
vt 0.475000 0.465828
vt 0.450000 0.465828
vt 0.425000 0.465828
vt 0.400000 0.465828
vt 0.625000 0.465828
vt 0.375000 0.465828
vt 0.600000 0.465828
vt 0.575000 0.465828
vt 0.550000 0.465828
vt 0.525000 0.465828
vt 0.500000 0.465828
vn 0.064432 0.816420 -0.573852
vn 0.064432 0.816420 -0.573852
vn -0.124286 0.797973 -0.589740
vn -0.124286 0.797973 -0.589740
vn 0.000580 0.999608 -0.028008
vn 0.000580 0.999608 -0.028008
vn -0.147639 0.988991 -0.009956
vn -0.147639 0.988991 -0.009956
vn -0.068909 0.817486 0.571811
vn -0.068909 0.817486 0.571811
vn -0.110154 0.803918 0.584451
vn -0.110154 0.803918 0.584451
vn -0.106732 0.275139 0.955462
vn -0.106732 0.275139 0.955462
vn -0.035122 0.299552 0.953433
vn -0.035122 0.299552 0.953433
vn -0.093625 -0.355098 0.930129
vn -0.093625 -0.355098 0.930129
vn 0.055226 -0.312741 0.948232
vn 0.055226 -0.312741 0.948232
vn -0.047819 -0.815915 0.576190
vn -0.047819 -0.815915 0.576190
vn 0.125033 -0.797805 0.589809
vn 0.125033 -0.797805 0.589809
vn 0.011133 -0.999572 0.027062
vn 0.011133 -0.999572 0.027062
vn 0.148439 -0.988870 0.010090
vn 0.148439 -0.988870 0.010090
vn 0.069778 -0.817300 -0.571972
vn 0.069778 -0.817300 -0.571972
vn 0.110412 -0.803867 -0.584472
vn 0.110412 -0.803867 -0.584472
vn 0.106572 -0.275202 -0.955461
vn 0.106572 -0.275202 -0.955461
vn 0.035091 -0.299566 -0.953430
vn 0.035091 -0.299566 -0.953430
vn 0.103449 0.357566 -0.928141
vn 0.103449 0.357566 -0.928141
vn -0.054647 0.312898 -0.948213
vn -0.054647 0.312898 -0.948213
vn -0.988921 -0.148249 0.007611
vn -0.988921 -0.148248 0.007611
vn -0.988921 -0.148248 0.007611
vn -0.988921 -0.148249 0.007611
vn -0.988921 -0.148248 0.007611
vn -0.988921 -0.148248 0.007611
vn -0.988921 -0.148247 0.007611
vn -0.988921 -0.148247 0.007611
vn -0.988921 -0.148248 0.007611
vn -0.988921 -0.148248 0.007611
vn -0.988921 -0.148248 0.007611
vn 0.854627 0.496000 -0.153610
vn 0.854628 0.495998 -0.153611
vn 0.854628 0.495998 -0.153611
vn 0.854627 0.496000 -0.153612
vn 0.854627 0.496000 -0.153611
vn 0.854628 0.495998 -0.153611
vn 0.854629 0.495996 -0.153611
vn 0.854629 0.495997 -0.153610
vn 0.854627 0.495999 -0.153611
vn 0.854629 0.495997 -0.153611
vn 0.854628 0.495998 -0.153610
vn 0.045536 0.324922 0.944644
vn 0.045536 0.324922 0.944644
vn -0.145824 0.790788 0.594467
vn -0.145824 0.790788 0.594467
vn -0.284216 0.958733 0.007250
vn -0.284216 0.958733 0.007250
vn -0.311056 0.749759 -0.584043
vn -0.311056 0.749759 -0.584043
vn -0.218244 0.257064 -0.941429
vn -0.218244 0.257064 -0.941429
vn -0.045536 -0.324923 -0.944644
vn -0.045536 -0.324923 -0.944644
vn 0.145824 -0.790787 -0.594467
vn 0.145824 -0.790787 -0.594467
vn 0.284216 -0.958733 -0.007250
vn 0.284216 -0.958733 -0.007250
vn 0.311056 -0.749759 0.584043
vn 0.311056 -0.749759 0.584043
vn 0.218244 -0.257064 0.941429
vn 0.218244 -0.257064 0.941429
s 1
g pCylinder2
usemtl initialShadingGroup
f 19/47/51 20/48/52 44/84/53 45/86/54
s 2
f 20/48/55 21/49/56 43/83/57 44/84/58
s 3
f 21/49/59 22/50/60 42/82/61 43/83/62
s 4
f 22/50/63 23/51/64 41/81/65 42/82/66
s 5
f 23/51/67 24/52/68 50/91/69 41/81/70
s 6
f 24/52/71 25/53/72 49/90/73 50/91/74
s 7
f 25/53/75 26/54/76 48/89/77 49/90/78
s 8
f 26/54/79 27/55/80 47/88/81 48/89/82
s 9
f 27/55/83 28/56/84 46/87/85 47/88/86
s 10
f 28/56/87 19/57/88 45/85/89 46/87/90
s 11
f 20/38/91 19/37/92 39/79/93
f 21/39/94 20/38/91 39/79/93
f 22/40/95 21/39/94 39/79/93
f 23/41/96 22/40/95 39/79/93
f 24/42/97 23/41/96 39/79/93
f 25/43/98 24/42/97 39/79/93
f 26/44/99 25/43/98 39/79/93
f 27/45/100 26/44/99 39/79/93
f 28/46/101 27/45/100 39/79/93
f 19/37/92 28/46/101 39/79/93
s 12
f 29/77/102 30/76/103 40/80/104
f 30/76/103 31/75/105 40/80/104
f 31/75/105 32/74/106 40/80/104
f 32/74/106 33/73/107 40/80/104
f 33/73/107 34/72/108 40/80/104
f 34/72/108 35/71/109 40/80/104
f 35/71/109 36/70/110 40/80/104
f 36/70/110 37/69/111 40/80/104
f 37/69/111 38/78/112 40/80/104
f 38/78/112 29/77/102 40/80/104
s 4
f 42/82/66 41/81/65 33/62/113 32/61/114
s 3
f 43/83/62 42/82/61 32/61/115 31/60/116
s 2
f 44/84/58 43/83/57 31/60/117 30/59/118
s 1
f 45/86/54 44/84/53 30/59/119 29/58/120
s 10
f 46/87/90 45/85/89 29/68/121 38/67/122
s 9
f 47/88/86 46/87/85 38/67/123 37/66/124
s 8
f 48/89/82 47/88/81 37/66/125 36/65/126
s 7
f 49/90/78 48/89/77 36/65/127 35/64/128
s 6
f 50/91/74 49/90/73 35/64/129 34/63/130
s 5
f 41/81/70 50/91/69 34/63/131 33/62/132
